<?xml version="1.0" encoding="iso-8859-1"?>
<!-- Generator: Adobe Illustrator 16.0.0, SVG Export Plug-In . SVG Version: 6.00 Build 0)  -->
<!DOCTYPE svg PUBLIC "-//W3C//DTD SVG 1.1//EN" "http://www.w3.org/Graphics/SVG/1.1/DTD/svg11.dtd">
<svg version="1.1" id="Capa_1" xmlns="http://www.w3.org/2000/svg" xmlns:xlink="http://www.w3.org/1999/xlink" x="0px" y="0px"
	 width="31.746px" height="31.747px" viewBox="0 0 31.746 31.747" style="enable-background:new 0 0 31.746 31.747;"
	 xml:space="preserve">
<g>
	<path d="M30.399,2.585C30.26,2.101,29.92,1.7,29.461,1.485c-0.456-0.214-0.983-0.221-1.446-0.019
		c-1.437,0.637-3.684,1.479-6.566,2.089l-0.204-1.471c-0.104-0.754-0.716-1.334-1.476-1.397C12.166,0.038,5.812,2.227,2.17,3.915
		L2.098,3.73C2.044,3.593,1.939,3.484,1.804,3.424C1.67,3.367,1.519,3.364,1.381,3.417L0.353,3.82
		C0.214,3.875,0.105,3.98,0.046,4.114c-0.059,0.135-0.061,0.287-0.009,0.424l10.305,26.285c0.054,0.137,0.158,0.247,0.293,0.306
		c0.134,0.06,0.286,0.063,0.424,0.008l1.029-0.402c0.283-0.111,0.424-0.434,0.313-0.717L5.412,12.185
		c5.065-2.367,9.676-3.151,12.773-3.35c0,0,0.352,1.743,0.586,2.942c0.119,0.612,0.701,1.017,1.316,0.916
		c3.271-0.532,7.005-1.592,10.745-3.623c0.717-0.39,1.07-1.228,0.846-2.012L30.399,2.585z M21.354,10.046
		c-0.219,0.589-0.77,1.139-1.605,1.604c-0.062,0.035-0.139,0.038-0.202,0.008c-0.062-0.03-0.109-0.088-0.125-0.158l-0.565-2.704
		c0.538-0.065,2.284-0.083,2.548,0.243C21.534,9.202,21.521,9.589,21.354,10.046z"/>
</g>
<g>
</g>
<g>
</g>
<g>
</g>
<g>
</g>
<g>
</g>
<g>
</g>
<g>
</g>
<g>
</g>
<g>
</g>
<g>
</g>
<g>
</g>
<g>
</g>
<g>
</g>
<g>
</g>
<g>
</g>
</svg>
